<svg xmlns="http://www.w3.org/2000/svg" viewBox="0 0 512 512">
  <rect width="512" height="512" rx="96" fill="#0f172a"/>
  <g fill="#ffffff" transform="translate(256 296)">
    <path d="M -135 -110 L -135 110 L -95 110 L -95 30 L -55 30 C -15 30 15 0 15 -40 C 15 -80 -15 -110 -55 -110 Z M -95 -75 L -55 -75 C -35 -75 -25 -60 -25 -40 C -25 -20 -35 -5 -55 -5 L -95 -5 Z"/>
    <path d="M 55 -115 C 105 -115 130 -90 135 -55 L 100 -50 C 97 -65 85 -80 55 -80 C 30 -80 15 -70 15 -55 C 15 -42 25 -36 50 -32 L 75 -28 C 120 -20 140 -2 140 35 C 140 80 100 115 50 115 C 0 115 -25 90 -32 50 L 5 45 C 10 70 25 80 52 80 C 80 80 100 70 100 40 C 100 25 90 17 65 13 L 40 9 C -5 1 -25 -15 -25 -50 C -25 -90 5 -115 55 -115 Z"/>
  </g>
</svg>
